# xmcd CD database file
#
# Track frame offsets:
#	150
#	10863
#	17723
#	36711
#	52024
#	70400
#	88136
#	112473
#	130003
#	150442
#	167117
#	185270
#	202741
#	224880
#	239582
#	254534
#
# Disc length: 3634 seconds
#
# Revision: 0
# Processed by: cddbd v1.5.2PL0 Copyright (c) Steve Scherf et al.
# Submitted via: CDex 1.78
#
DISCID=f10e3010
DTITLE=Mary Kaye - Ride a Wide Circle
DYEAR=2015
DGENRE=Country
TTITLE0=Mary Kaye - The Night Herding Song
TTITLE1=Mary Kaye - Ride a Wide Circle (intro)
TTITLE2=Mary Kaye - Ride a Wide Circle
TTITLE3=Mary Kaye - Grit, Grace and Balin' Twine
TTITLE4=Mary Kaye - Leavin' Cheyenne
TTITLE5=Mary Kaye - Buckskin Joe
TTITLE6=Mary Kaye - Women and Horses
TTITLE7=Mary Kaye - Que Vaquero
TTITLE8=Mary Kaye - Wild of the West
TTITLE9=Mary Kaye - Big Enough
TTITLE10=Mary Kaye - The Town That Raised Me
TTITLE11=Mary Kaye - Horse Lover
TTITLE12=Mary Kaye - Love's Last Stand
TTITLE13=Mary Kaye - A Cowboy's Soul
TTITLE14=Mary Kaye - Girl Meets West
TTITLE15=Mary Kaye - Song of Wyoming
EXTD=YEAR: 2015
EXTT0=
EXTT1=
EXTT2=
EXTT3=
EXTT4=
EXTT5=
EXTT6=
EXTT7=
EXTT8=
EXTT9=
EXTT10=
EXTT11=
EXTT12=
EXTT13=
EXTT14=
EXTT15=
PLAYORDER=
